<svg xmlns="http://www.w3.org/2000/svg" xmlns:xlink="http://www.w3.org/1999/xlink" width="2849.525" height="3505.1" viewBox="0 0 2849.525 3505.1"><defs><style>.cls-1{clip-path:url(#clip-Artboard_4)}.cls-2,.cls-3,.cls-7{fill:#fff}.cls-3,.cls-8{stroke:#000}.cls-3{stroke-width:2px;fill-rule:evenodd}.cls-4,.cls-5{font-size:64px}.cls-4{font-family:Helvetica-Bold,Helvetica;font-weight:700;letter-spacing:.2em}.cls-5{fill:#797777;font-family:PingFangSC-Regular,PingFang SC;letter-spacing:.4em}.cls-6{fill:#ca3136}.cls-7{font-size:71px;font-family:Helvetica}.cls-8{fill:none;stroke-linecap:round;stroke-linejoin:round;stroke-width:8px}</style><clipPath id="clip-Artboard_4"><rect width="2849.526" height="3505.099"/></clipPath></defs><g id="Artboard_4" class="cls-1" data-name="Artboard – 4"><rect width="2849.526" height="3505.099" class="cls-2"/><g id="np_digital_2359851_000000" transform="translate(1198.1 788.953)"><path id="路径_1029" d="M248.175,262.135H161.658a2.978,2.978,0,1,1,0-5.956h83.559L245.2,47.8H55.722V256.179h56.3a2.978,2.978,0,1,1,0,5.956H52.744a2.974,2.974,0,0,1-2.978-2.978V44.825a2.974,2.974,0,0,1,2.978-2.978H248.2a2.974,2.974,0,0,1,2.978,2.978V259.157a3,3,0,0,1-3,2.978Z" class="cls-2" data-name="路径 1029" transform="translate(175.622 152.494)"/><path id="路径_1030" d="M57.548,188.628a2.974,2.974,0,0,1-2.978-2.978V10.33a2.978,2.978,0,0,1,5.956,0v175.3a2.978,2.978,0,0,1-2.978,3Z" class="cls-2" data-name="路径 1030" transform="translate(195.233 11.674)"/><path id="路径_1031" d="M64.759,126.789a2.974,2.974,0,0,1-2.978-2.978V25.478a2.978,2.978,0,0,1,5.956,0v98.333A2.974,2.974,0,0,1,64.759,126.789Z" class="cls-2" data-name="路径 1031" transform="translate(224.671 73.513)"/><path id="路径_1032" d="M71.97,165.555a2.974,2.974,0,0,1-2.978-2.978V15.982a2.978,2.978,0,1,1,5.956,0V162.557a2.978,2.978,0,0,1-2.978,3Z" class="cls-2" data-name="路径 1032" transform="translate(254.109 34.747)"/><path id="路径_1033" d="M79.181,106.679A2.974,2.974,0,0,1,76.2,103.7V30.4a2.978,2.978,0,0,1,5.956,0v73.3A2.974,2.974,0,0,1,79.181,106.679Z" class="cls-2" data-name="路径 1033" transform="translate(283.547 93.622)"/><path id="路径_1034" d="M86.392,144.951a2.974,2.974,0,0,1-2.978-2.978V21.029a2.978,2.978,0,0,1,5.956,0V141.973A2.974,2.974,0,0,1,86.392,144.951Z" class="cls-2" data-name="路径 1034" transform="translate(312.984 55.35)"/><path id="路径_1035" d="M248.175,76.471H52.744a2.974,2.974,0,0,1-2.978-2.978V44.825a2.974,2.974,0,0,1,2.978-2.978H248.2a2.974,2.974,0,0,1,2.978,2.978V73.493a3.017,3.017,0,0,1-3,2.978ZM55.722,70.515H245.217V47.8H55.722Z" class="cls-2" data-name="路径 1035" transform="translate(175.622 152.495)"/><path id="路径_1036" d="M190.932,96.187H58.99a2.974,2.974,0,0,1-2.978-2.978V50.466a2.974,2.974,0,0,1,2.978-2.978H190.932a2.974,2.974,0,0,1,2.978,2.978V93.209A2.974,2.974,0,0,1,190.932,96.187ZM61.968,90.231H187.954V53.444H61.968Z" class="cls-2" data-name="路径 1036" transform="translate(201.12 175.521)"/><path id="路径_1037" d="M205.175,235.1H9.724a2.974,2.974,0,0,1-2.978-2.978V17.786a2.974,2.974,0,0,1,2.978-2.978h59.26a2.978,2.978,0,0,1,0,5.956H12.7V229.14H202.2V20.764H118.618a2.978,2.978,0,0,1,0-5.956h86.537a2.974,2.974,0,0,1,2.978,2.978V232.118a2.957,2.957,0,0,1-2.958,2.978Z" class="cls-2" data-name="路径 1037" transform="translate(0 42.111)"/><path id="路径_1038" d="M14.533,238.216a2.974,2.974,0,0,1-2.978-2.978V59.959a2.978,2.978,0,0,1,5.956,0V235.239A2.987,2.987,0,0,1,14.533,238.216Z" class="cls-2" data-name="路径 1038" transform="translate(19.632 214.276)"/><path id="路径_1039" d="M21.744,161.269a2.974,2.974,0,0,1-2.978-2.978V59.958a2.978,2.978,0,1,1,5.956,0v98.333A2.987,2.987,0,0,1,21.744,161.269Z" class="cls-2" data-name="路径 1039" transform="translate(49.07 214.271)"/><path id="路径_1040" d="M28.951,209.531a2.974,2.974,0,0,1-2.978-2.978V59.958a2.978,2.978,0,1,1,5.956,0V206.533a2.978,2.978,0,0,1-2.978,3Z" class="cls-2" data-name="路径 1040" transform="translate(78.491 214.271)"/><path id="路径_1041" d="M36.158,136.233a2.974,2.974,0,0,1-2.978-2.978v-73.3a2.978,2.978,0,0,1,5.956,0v73.3A2.987,2.987,0,0,1,36.158,136.233Z" class="cls-2" data-name="路径 1041" transform="translate(107.912 214.271)"/><path id="路径_1042" d="M43.365,183.88a2.974,2.974,0,0,1-2.978-2.978V59.958a2.978,2.978,0,0,1,5.956,0V180.9A2.974,2.974,0,0,1,43.365,183.88Z" class="cls-2" data-name="路径 1042" transform="translate(137.334 214.271)"/><path id="路径_1043" d="M205.175,85.979H9.724A2.974,2.974,0,0,1,6.746,83V54.314a2.974,2.974,0,0,1,2.978-2.978H205.175a2.974,2.974,0,0,1,2.978,2.978V83A2.987,2.987,0,0,1,205.175,85.979ZM12.7,80.023H202.2V57.291H12.7Z" class="cls-2" data-name="路径 1043" transform="translate(0 191.229)"/><path id="路径_1044" d="M147.912,91.609H15.97a2.974,2.974,0,0,1-2.978-2.978V45.908A2.974,2.974,0,0,1,15.97,42.93H147.912a2.974,2.974,0,0,1,2.978,2.978V88.631A2.974,2.974,0,0,1,147.912,91.609ZM18.948,85.653H144.934V48.885H18.948Z" class="cls-2" data-name="路径 1044" transform="translate(25.498 156.914)"/><path id="路径_1045" d="M119.108,133.468a2.974,2.974,0,0,1-2.978-2.978v-86.8H89.169a2.978,2.978,0,0,1,0-5.956h29.938a2.974,2.974,0,0,1,2.978,2.978V130.49a2.974,2.974,0,0,1-2.978,2.978Z" class="cls-2" data-name="路径 1045" transform="translate(324.322 135.719)"/><path id="路径_1046" d="M69.221,39.553A17.53,17.53,0,1,1,86.771,22,17.547,17.547,0,0,1,69.221,39.553Zm0-29.1A11.574,11.574,0,1,0,80.815,22,11.565,11.565,0,0,0,69.221,10.448Z" class="cls-2" data-name="路径 1046" transform="translate(183.561)"/><path id="路径_1047" d="M76.432,54.693a17.53,17.53,0,1,1,17.55-17.51,17.539,17.539,0,0,1-17.55,17.51Zm0-29.1A11.574,11.574,0,1,0,88.026,37.182,11.586,11.586,0,0,0,76.432,25.588Z" class="cls-2" data-name="路径 1047" transform="translate(212.998 61.807)"/><path id="路径_1048" d="M83.675,46.021a17.53,17.53,0,1,1,17.55-17.51A17.56,17.56,0,0,1,83.675,46.021Zm0-29.124A11.574,11.574,0,1,0,95.269,28.49,11.607,11.607,0,0,0,83.675,16.9Z" class="cls-2" data-name="路径 1048" transform="translate(242.404 26.405)"/><path id="路径_1049" d="M90.886,59.658a17.55,17.55,0,1,1,17.51-17.55A17.568,17.568,0,0,1,90.886,59.658Zm0-29.144A11.594,11.594,0,1,0,102.44,42.108,11.607,11.607,0,0,0,90.886,30.514Z" class="cls-2" data-name="路径 1049" transform="translate(271.842 81.917)"/><path id="路径_1050" d="M98.1,50.252a17.53,17.53,0,1,1,17.51-17.55A17.568,17.568,0,0,1,98.1,50.252Zm0-29.1A11.574,11.574,0,1,0,109.651,32.7,11.586,11.586,0,0,0,98.1,21.147Z" class="cls-2" data-name="路径 1050" transform="translate(301.28 43.677)"/><path id="路径_1051" d="M26.238,123.67a17.53,17.53,0,1,1,17.55-17.55A17.568,17.568,0,0,1,26.238,123.67Zm0-29.1a11.574,11.574,0,1,0,11.594,11.554A11.586,11.586,0,0,0,26.238,94.565Z" class="cls-2" data-name="路径 1051" transform="translate(7.927 343.394)"/><path id="路径_1052" d="M33.449,108.529a17.53,17.53,0,1,1,17.51-17.55,17.581,17.581,0,0,1-17.51,17.55Zm0-29.1A11.574,11.574,0,1,0,45,90.978,11.586,11.586,0,0,0,33.449,79.424Z" class="cls-2" data-name="路径 1052" transform="translate(37.365 281.583)"/><path id="路径_1053" d="M40.656,118.017a17.53,17.53,0,1,1,17.51-17.51,17.56,17.56,0,0,1-17.51,17.51Zm0-29.1A11.574,11.574,0,1,0,52.21,100.506,11.607,11.607,0,0,0,40.656,88.912Z" class="cls-2" data-name="路径 1053" transform="translate(66.786 320.316)"/><path id="路径_1054" d="M47.831,103.6a17.53,17.53,0,1,1,17.55-17.51A17.539,17.539,0,0,1,47.831,103.6Zm0-29.1A11.574,11.574,0,1,0,59.425,86.085,11.586,11.586,0,0,0,47.831,74.491Z" class="cls-2" data-name="路径 1054" transform="translate(96.24 261.445)"/><path id="路径_1055" d="M55.038,112.971a17.53,17.53,0,1,1,17.55-17.51A17.539,17.539,0,0,1,55.038,112.971Zm0-29.1A11.574,11.574,0,1,0,66.632,95.46,11.586,11.586,0,0,0,55.038,83.866Z" class="cls-2" data-name="路径 1055" transform="translate(125.661 299.717)"/><path id="路径_1056" d="M278.044,98.819H20.314a2.978,2.978,0,1,1,0-5.956h257.73a2.978,2.978,0,1,1,0,5.956Z" class="cls-2" data-name="路径 1056" transform="translate(43.232 360.758)"/><path id="路径_1057" d="M228.328,95.616H50.009a2.978,2.978,0,1,1,0-5.956H228.348a2.978,2.978,0,1,1-.02,5.956Z" class="cls-2" data-name="路径 1057" transform="translate(164.457 347.682)"/><path id="路径_1058" d="M110.984,95.616H88.689a2.978,2.978,0,0,1,0-5.956h22.295a2.978,2.978,0,0,1,0,5.956Z" class="cls-2" data-name="路径 1058" transform="translate(322.363 347.682)"/></g><g id="组_2" data-name="组 2" transform="translate(3.921 119.494)"><path id="path2427" d="M-32.705,436.92C400.672,165.76,770.636,193.2,1137.011-40.432c196.537,50.319,342.849,30.2,478.1-5.425,414.964,223.263,779.818,259.059,1169.711,488.2-32.406,239.264-103.771,446.008-222.794,612.963-144.416-90.452-281.057-126.392-413.115-130.187l-9.291,1627.336c-568.927,123.832-1051.144,70.328-1522.483-5.42L612.5,930.545c-165.972-5.635-292.253,66.039-422.4,130.187C64.929,861.294,6.445,650.72-32.706,436.92h0Z" class="cls-3" transform="translate(44.705 168.857)"/><g id="组_2-2" data-name="组 2" transform="translate(1103.738 671.558)"><text id="Life_is_good" class="cls-4" data-name="Life is good" transform="translate(306.378 625.003)"><tspan x="-249.947" y="0">Life is good</tspan></text><text id="今天没人改需求" class="cls-5" transform="translate(301 747.009)"><tspan x="-300.8" y="0">今天没人改需求</tspan></text><g id="icon" transform="translate(562.003 0)"><rect id="矩形_1" width="69.914" height="204.365" class="cls-6" data-name="矩形 1" rx="10" transform="translate(0 13.445)"/><text id="_2_0_0" class="cls-7" data-name="2 00" transform="translate(35.445 77)"><tspan x="-19.743" y="0">2</tspan><tspan x="-19.743" y="61">0</tspan><tspan x="-19.743" y="122">0</tspan></text></g><g id="np_ok_1667782_FFFFFF" transform="translate(170.35 131.967)"><path id="路径_12" d="M35,158.88c4.284-15.926,19.074-32.467,33.957-36.863s59.511-5.718,70.617,2.626C121.748,96.517,84.641,62.653,104.09,27.408c1.77-3.521,5.29-5.29,7.06-8.829,1.77-1.77,5.29,0,7.06,1.77,31.945,45.916,55.081,91.98,85.033,136.237,7.06,24.755,14.306,47.685,8.829,74.284h-.019a383.765,383.765,0,0,0-8.811,126.648" class="cls-8" data-name="路径 12" transform="translate(61.32 -17.846)"/><path id="路径_13" d="M121.079,252.828c-7.488-34.851-33.994-65.048-56.216-91.7-10.673-12.834-23.843-25.612-31.61-40.588-6.631-12.927-4.061-29.431-.82-42.917v.019a134.611,134.611,0,0,1,6.259-19.707c2.962-7.1,5.718-9.91,13.933-9.537,8.2.373,16.317,11.921,16.317,11.921l1.565,2.291v38.074l1.77,2.142c.279.335,29.1,33.007,43.252,34.628h1.863c10.022,0,29.8-9.537,36.584-17.547l.708-.857.484-1.006-.037.019a92.779,92.779,0,0,0,4.21-24.495v-.857c0-3.912-1.77-30.232-16.355-40.253h-.019A35.676,35.676,0,0,0,122.7,47.019c-8.1,0-52.454,15.74-52.454,15.74" class="cls-8" data-name="路径 13" transform="translate(39.13 92.005)"/><path id="路径_14" d="M87.182,110.912l1.77-82.834s-24.42-.242-24.42,22.558" class="cls-8" data-name="路径 14" transform="translate(172.609 20.714)"/><path id="路径_15" d="M89.194,112.461,84.76,18.431a28.056,28.056,0,0,0-16.895,5.085c-6.725,5.625-9.2,17.789-9.537,35.392v2.626" class="cls-8" data-name="路径 15" transform="translate(149.233 -15.684)"/><path id="路径_16" d="M96.878,104.054,56.289,39.211" class="cls-8" data-name="路径 16" transform="translate(141.549 62.669)"/><path id="路径_17" d="M14.8,50.306l14.306-8.587" class="cls-8" data-name="路径 17" transform="translate(-14.801 72.121)"/><path id="路径_18" d="M56.023,28.922,40.078,33.914" class="cls-8" data-name="路径 18" transform="translate(80.457 23.895)"/><path id="路径_19" d="M21.012,22.1l7,15.107" class="cls-8" data-name="路径 19" transform="translate(8.605 -1.807)"/><path id="路径_20" d="M28.512,50.76,34.6,24.012" class="cls-8" data-name="路径 20" transform="translate(36.869 5.389)"/><path id="路径_21" d="M30.39,40.16l-5.4,23.507" class="cls-8" data-name="路径 21" transform="translate(23.59 66.245)"/><path id="路径_22" d="M44.4,38.445l-27.549-6.3" class="cls-8" data-name="路径 22" transform="translate(-7.073 36.054)"/><path id="路径_23" d="M33.191,35.871l22.595,5.141" class="cls-8" data-name="路径 23" transform="translate(54.502 50.082)"/><path id="路径_24" d="M37.6,38.031,19.531,48.89" class="cls-8" data-name="路径 24" transform="translate(3.024 58.222)"/><path id="路径_25" d="M32.9,38.66,57.5,30.93" class="cls-8" data-name="路径 25" transform="translate(53.398 31.461)"/><path id="路径_26" d="M30.639,42.181,23.691,27.149" class="cls-8" data-name="路径 26" transform="translate(18.701 17.212)"/></g></g></g></g></svg>